<?xml version="1.0" encoding="UTF-8"?>
<svg xmlns="http://www.w3.org/2000/svg" xmlns:xlink="http://www.w3.org/1999/xlink" height="90.0" preserveAspectRatio="xMidYMid meet" version="1.0" viewBox="9.1 27.3 125.9 90.0" width="125.9" zoomAndPan="magnify"><g id="change1_1"><path d="M127.8,27.3c-0.8,0-1.6,0-2.4,0H17c-3.5,0-6.8,2-7.6,5.6c-0.2,1.5-0.3,3-0.2,4.5v69.9c-0.1,1.7,0,3.4,0.4,5 c1.1,3.3,4.2,5,7.5,5h110.7c0.2,0,0.4-0.1,0.6-0.2c4-0.4,6.6-3.7,6.6-7.8V35.1C135,30.9,132.1,27.4,127.8,27.3z M11.7,34.5 c0.1-3.1,2.5-4.8,5.4-4.8h100.3c3.4,0,6.9-0.1,10.3,0c3,0.1,4.9,2.4,4.9,5.3v8.7H25.6c-4.7,0-9.3-0.2-13.9,0 C11.6,40.7,11.6,37.6,11.7,34.5z M132.5,109.9c0,2.6-2.1,4.7-4.8,4.8c-0.1,0-0.2,0-0.2,0H17.6c-2.1,0-4.2-0.3-5.3-2.4 c-0.8-1.5-0.6-3.2-0.6-4.9V47.3c0-0.3,0-0.7,0-1h106.9c4.7,0,9.3,0.2,13.9,0v62.6C132.5,109.2,132.5,109.6,132.5,109.9z" fill="inherit"/><path d="M20.1,37.9C20.1,37.8,20,37.8,20.1,37.9L20.1,37.9z" fill="inherit"/><path d="M25,40.2c0.7-0.8,1-1.7,1-2.8c0,0,0,0,0,0c0,0,0,0,0,0c0,0,0,0,0,0c0-0.2,0-0.3,0-0.5c-0.2-1.6-1.3-2.9-2.8-3.5 c-1.6-0.6-3.5-0.1-4.6,1.2c-1.5,1.8-1.3,4.4,0.4,6C20.8,42.1,23.4,41.9,25,40.2z M23.5,37.1C23.5,37.1,23.5,37.2,23.5,37.1 c0,0.1,0,0.1,0,0.1C23.5,37.2,23.5,37.2,23.5,37.1z M20,37.1c0-0.1,0-0.1,0-0.2c0-0.1,0.1-0.2,0.1-0.4l0.1-0.2l0.1-0.2c0,0,0,0,0,0 c0,0,0,0,0,0c0.1-0.1,0.2-0.2,0.3-0.3h0.1c-0.1,0.1,0,0,0.1,0c0.1-0.1,0.3-0.1,0.4-0.2c0,0-0.3,0.1-0.1,0l0.2-0.1h0.2 c0,0,0,0,0.1,0c0,0,0.1,0,0.1,0H22l0.5,0.1c0.2,0.1,0.2,0.1,0.2,0.1l0.1,0.1l0.1,0.1c-0.1-0.1-0.2-0.1-0.1,0l0.3,0.3 c0,0.1,0.1,0.1,0.1,0.2l0.1,0.2c0,0.1,0,0.2,0.1,0.2c0,0.1-0.1,0.2-0.1,0.3c0,0.1,0,0.1,0,0.2c0,0.1-0.1,0.3-0.1,0.4 c0,0,0,0.1,0,0.1c0,0,0,0,0,0.1c-0.1,0.1-0.2,0.3-0.2,0.4c0,0-0.1,0.1-0.1,0.1c0,0-0.1,0.1-0.1,0.1l-0.1,0c-0.1,0.1-0.1,0.1,0,0 c-0.1,0.1-0.2,0.1-0.2,0.2l-0.1,0.1L21.9,39c0,0,0,0,0,0c0,0,0,0,0,0c-0.1,0-0.1,0-0.2,0h-0.4c-0.1,0-0.2,0-0.2-0.1l-0.2-0.1 c-0.2-0.1,0.1,0,0.1,0c0,0-0.3-0.2-0.3-0.2l-0.2-0.1c0,0-0.3-0.3-0.3-0.3l-0.1-0.1l0-0.1v-0.1c0,0,0,0,0,0c0,0,0,0.1,0,0.1 c0,0-0.1-0.3-0.1-0.4v-0.2V37.1z" fill="inherit"/><path d="M20,37.1C20,36.8,20,37,20,37.1L20,37.1z" fill="inherit"/><path d="M21.9,39L21.9,39C21.8,39,21.7,39,21.9,39z" fill="inherit"/><path d="M35,40c0.6-0.7,0.9-1.6,1-2.5c0-0.1,0-0.1,0-0.2c0,0,0-0.1,0-0.1c0-1.8-1.1-3.4-2.8-4c-1.6-0.6-3.5-0.1-4.6,1.2 c-1.5,1.8-1.3,4.4,0.4,6C30.8,42,33.4,41.8,35,40z M30.1,37.1c0-0.1,0-0.1,0-0.2c0-0.1,0.1-0.2,0.1-0.4l0.1-0.2l0.1-0.2 c0,0,0,0,0,0c0,0,0,0,0,0c0.1-0.1,0.2-0.2,0.3-0.3h0.1c0,0,0,0,0.1,0c0.1-0.1,0.3-0.1,0.4-0.2c0,0-0.3,0.1-0.1,0l0.2-0.1h0.2 c0,0,0,0,0.1,0c0,0,0.1,0,0.1,0H32l0.5,0.1c0.2,0.1,0.2,0.1,0.2,0.1c0,0,0.1,0,0.1,0.1l0,0c0,0,0,0,0.1,0.1l0.3,0.3 c0,0.1,0.1,0.1,0.1,0.2l0.1,0.2c0.1,0.2,0.1,0.3,0.1,0.4c0,0,0,0,0,0c0,0,0,0,0,0c0,0,0,0,0,0c0,0,0,0,0,0c0,0,0,0,0,0.1 c0,0,0,0,0,0c0,0,0,0,0,0.1h0c0,0.1,0,0.1,0,0.2c0,0.1-0.1,0.3-0.1,0.4c0,0,0,0.1,0,0.1c0,0,0,0,0,0.1l-0.2,0.4 c0,0-0.1,0.1-0.1,0.1l-0.1,0.1v0c-0.1,0.1-0.1,0.1,0,0c-0.1,0.1-0.2,0.1-0.2,0.2l-0.1,0.1L32.1,39c-0.1,0-0.1,0-0.2,0h-0.4L31.2,39 L31,38.9c-0.2-0.1,0.1,0,0.1,0c0,0-0.3-0.2-0.3-0.2c0,0-0.1-0.1-0.2-0.1c0,0-0.3-0.3-0.3-0.3l-0.1-0.1l0.1-0.1c0,0,0,0,0,0 c0,0,0,0,0,0l0,0v-0.1c0-0.1-0.1-0.1,0,0c0-0.1-0.1-0.2-0.1-0.3c0,0,0-0.1,0-0.2C30.1,37.4,30.1,37.2,30.1,37.1z" fill="inherit"/><path d="M32.1,39C32.1,39,31.8,39,32.1,39L32.1,39z" fill="inherit"/><path d="M30.1,37.1C30.2,36.8,30.1,37,30.1,37.1L30.1,37.1z" fill="inherit"/><path d="M33.5,37.2C33.5,37.2,33.5,37.2,33.5,37.2C33.5,37.1,33.5,37.1,33.5,37.2C33.5,37.1,33.5,37.2,33.5,37.2z" fill="inherit"/><path d="M40.4,37.9C40.4,37.9,40.4,37.9,40.4,37.9C40.4,37.9,40.4,38,40.4,37.9L40.4,37.9L40.4,37.9z" fill="inherit"/><path d="M40.4 38L40.4 38 40.4 38z" fill="inherit"/><path d="M40.4,37.9C40.4,37.8,40.4,37.8,40.4,37.9L40.4,37.9z" fill="inherit"/><path d="M45.3,40.2c0.7-0.8,1-1.7,1-2.8c0,0,0,0,0,0c0,0,0,0,0,0c0,0,0,0,0,0c0-0.2,0-0.3,0-0.5C46,35.3,45,34,43.5,33.4 c-1.6-0.6-3.5-0.1-4.6,1.2c-1.5,1.8-1.3,4.4,0.4,6S43.7,41.9,45.3,40.2z M43.8,37.1C43.8,37.1,43.8,37.2,43.8,37.1 c0,0.1,0,0.1,0,0.1C43.8,37.2,43.8,37.2,43.8,37.1z M40.3,37.1c0,0,0-0.1,0-0.2c0-0.1,0.1-0.3,0.1-0.4l0.1-0.2l0.1-0.2c0,0,0,0,0,0 c0,0,0,0,0,0c0.1-0.1,0.2-0.2,0.3-0.3h0.1c-0.1,0.1,0,0,0.1,0c0.1-0.1,0.3-0.1,0.4-0.2c0,0-0.3,0.1-0.1,0l0.2-0.1h0.2 c0,0,0,0,0.1,0c0,0,0.1,0,0.1,0h0.4l0.5,0.1c0.2,0.1,0.2,0.1,0.2,0.1l0.1,0.1c0,0,0,0,0.1,0.1l0.3,0.3c0,0.1,0.1,0.1,0.1,0.2 c0,0.1,0.1,0.1,0.1,0.2c0,0.1,0.1,0.2,0.1,0.3c0,0.1-0.1,0.2-0.1,0.3c0,0.1,0,0.1,0,0.2c0,0.1-0.1,0.3-0.1,0.4c0,0,0,0,0,0.1 c0,0,0,0,0,0c-0.1,0.1-0.2,0.3-0.2,0.4c0,0-0.1,0.1-0.1,0.1c0,0-0.1,0.1-0.1,0.1l0,0c-0.1,0.1-0.1,0.1,0,0 c-0.1,0.1-0.2,0.1-0.2,0.2l-0.1,0.1L42.2,39c-0.1,0-0.1,0-0.2,0h-0.4l-0.2-0.1l-0.2-0.1c-0.2,0,0.1,0,0.1,0c0,0-0.3-0.2-0.3-0.2 l-0.2-0.1c0,0-0.2-0.2-0.3-0.3l-0.1-0.2l0.1-0.1c0-0.1-0.1-0.3-0.1-0.4v-0.2C40.3,37.3,40.3,37.2,40.3,37.1z" fill="inherit"/><path d="M42.2,39C42.2,38.9,42,39,42.2,39L42.2,39z" fill="inherit"/><path d="M40.3,37.1C40.4,36.8,40.3,37,40.3,37.1L40.3,37.1z" fill="inherit"/><path d="M86.8,67.6c-1-1.2-2.8,0.6-1.8,1.8l9.7,11.1L85,91.6c-1.1,1.2,0.7,3,1.8,1.8l10.5-12c0.5-0.5,0.5-1.3,0-1.8L86.8,67.6z" fill="inherit"/><path d="M57.4,67.6L57.4,67.6L47,79.6c-0.5,0.5-0.5,1.3,0,1.8l10.4,12c1.1,1.2,2.8-0.6,1.8-1.8l-9.7-11.1l9.7-11.1 C60.3,68.2,58.5,66.4,57.4,67.6z" fill="inherit"/><path d="M77,67.8l-10.4,21l-1.5,3c-0.7,1.4,1.4,2.7,2.2,1.3l10.5-21l1.5-3C79.8,67.7,77.7,66.4,77,67.8z" fill="inherit"/></g></svg>