<svg
      class="hiasan"
      xmlns="http://www.w3.org/2000/svg"
      xmlns:xlink="http://www.w3.org/1999/xlink"
      preserveAspectRatio="xMidYMid meet"
      version="1.0"
      viewBox="-271.7 -271.7 1176.6 1176.6"
      zoomAndPan="magnify"
      style="fill: rgb(0, 0, 0)"
      role="img"
      aria-label="White Circle Spiral Vector"
    >
      <g>
        <g id="__id2_sd2dd6mb5k" style="fill: rgb(0, 0, 0)">
          <path
            d="M316.594,633.189c-84.565,0-164.068-32.933-223.865-92.729S0,401.159,0,316.594 c0-84.565,32.932-164.069,92.729-223.865C152.525,32.932,232.029,0,316.594,0c84.565,0,164.069,32.932,223.866,92.729 c59.796,59.796,92.728,139.3,92.728,223.865c0,84.565-32.932,164.069-92.728,223.866 C480.663,600.258,401.159,633.189,316.594,633.189z M316.594,3C143.678,3,3,143.678,3,316.594 C3,489.511,143.678,630.19,316.594,630.19c172.916,0,313.594-140.68,313.594-313.597C630.188,143.678,489.51,3,316.594,3z"
            style="fill: inherit"
          ></path>
          <path
            d="M316.594,578.212c-69.88,0-135.578-27.213-184.991-76.626c-49.413-49.414-76.626-115.11-76.626-184.992 c0-69.88,27.213-135.578,76.626-184.991s115.111-76.626,184.991-76.626c69.881,0,135.578,27.213,184.991,76.626 c49.412,49.413,76.625,115.11,76.625,184.991c0,69.882-27.213,135.579-76.625,184.992 C452.172,550.999,386.475,578.212,316.594,578.212z M316.594,57.457c-142.889,0-259.137,116.249-259.137,259.137 c0,142.891,116.249,259.141,259.137,259.141c142.889,0,259.139-116.25,259.139-259.141 C575.731,173.705,459.482,57.457,316.594,57.457z"
            style="fill: inherit"
          ></path>
          <path
            d="M316.594,519.442c-111.85,0-202.847-90.997-202.847-202.85c0-111.85,90.997-202.847,202.847-202.847 c111.852,0,202.848,90.997,202.848,202.847C519.44,428.445,428.444,519.442,316.594,519.442z M316.594,115.669 c-110.79,0-200.925,90.135-200.925,200.925c0,110.791,90.135,200.928,200.925,200.928c110.79,0,200.925-90.137,200.925-200.928 C517.519,205.804,427.384,115.669,316.594,115.669z"
            style="fill: inherit"
          ></path>
          <path
            d="M316.594,805.096c-130.482,0-253.154-50.814-345.42-143.08s-143.08-214.939-143.08-345.422 s50.813-253.156,143.08-345.42c92.264-92.266,214.938-143.08,345.42-143.08c130.484,0,253.156,50.814,345.422,143.08 c92.265,92.264,143.078,214.938,143.078,345.42S754.28,569.75,662.016,662.016C569.75,754.284,447.078,805.096,316.594,805.096z M316.594-167.278c-266.806,0-483.871,217.063-483.871,483.871c0,266.809,217.064,483.875,483.871,483.875 c266.809,0,483.871-217.065,483.871-483.875C800.465,49.786,583.402-167.278,316.594-167.278z"
            style="fill: inherit"
          ></path>
          <path
            d="M316.594,750.901c-116.007,0-225.071-45.176-307.101-127.206s-127.205-191.092-127.205-307.103 c0-116.006,45.175-225.07,127.205-307.1s191.094-127.206,307.101-127.206c116.009,0,225.071,45.176,307.101,127.206 s127.204,191.092,127.204,307.1c0,116.011-45.175,225.073-127.204,307.103C541.665,705.726,432.603,750.901,316.594,750.901z M316.594-113.596c-237.207,0-430.189,192.983-430.189,430.188c0,237.21,192.984,430.195,430.189,430.195 c237.207,0,430.191-192.985,430.191-430.195C746.784,79.386,553.801-113.596,316.594-113.596z"
            style="fill: inherit"
          ></path>
          <path
            d="M316.594,693.658c-207.911,0-377.062-169.15-377.062-377.067c0-207.912,169.15-377.061,377.062-377.061 c207.914,0,377.063,169.149,377.063,377.061C693.654,524.508,524.507,693.658,316.594,693.658z M316.594-56.896 c-205.941,0-373.489,167.547-373.489,373.488c0,205.943,167.548,373.495,373.489,373.495 c205.941,0,373.488-167.552,373.488-373.495C690.082,110.652,522.535-56.896,316.594-56.896z"
            style="fill: inherit"
          ></path>
          <path
            d="M316.594,904.901c-157.141,0-304.878-61.195-415.995-172.312 c-111.116-111.117-172.31-258.852-172.31-415.998c0-157.14,61.194-304.877,172.31-415.994 C11.716-210.518,159.453-271.713,316.594-271.713c157.144,0,304.879,61.195,415.995,172.312 C843.705,11.715,904.897,159.449,904.897,316.592c0,157.146-61.192,304.881-172.309,415.998S473.737,904.901,316.594,904.901z M316.594-266.136c-321.317,0-582.729,261.413-582.729,582.728c0,321.321,261.414,582.738,582.729,582.738 c321.318,0,582.732-261.417,582.732-582.738C899.324-4.725,637.912-266.136,316.594-266.136z"
            style="fill: inherit"
          ></path>
          <path
            d="M316.594,853.406c-295.995,0-536.809-240.813-536.809-536.816c0-295.996,240.813-536.808,536.809-536.808 c296,0,536.812,240.812,536.812,536.808C853.401,612.593,612.592,853.406,316.594,853.406z M316.594-215.129 c-293.19,0-531.723,238.531-531.723,531.722c0,293.194,238.532,531.731,531.723,531.731 c293.191,0,531.722-238.537,531.722-531.731C848.315,23.401,609.785-215.129,316.594-215.129z"
            style="fill: inherit"
          ></path>
        </g>
      </g>
    </svg>